<?xml version="1.0" standalone="no"?>
<svg xmlns:xlink="http://www.w3.org/1999/xlink" id="wave" style="transform:rotate(0deg); transition: 0.3s" viewBox="0 0 1440 110" version="1.1" xmlns="http://www.w3.org/2000/svg"><defs><linearGradient id="sw-gradient-0" x1="0" x2="0" y1="1" y2="0"><stop stop-color="rgba(29, 78, 216, 1)" offset="0%"/><stop stop-color="rgba(29, 78, 216, 1)" offset="100%"/></linearGradient></defs><path style="transform:translate(0, 0px); opacity:1" fill="url(#sw-gradient-0)" d="M0,66L60,71.5C120,77,240,88,360,78.8C480,70,600,40,720,23.8C840,7,960,4,1080,18.3C1200,33,1320,66,1440,71.5C1560,77,1680,55,1800,38.5C1920,22,2040,11,2160,22C2280,33,2400,66,2520,75.2C2640,84,2760,70,2880,62.3C3000,55,3120,55,3240,58.7C3360,62,3480,70,3600,69.7C3720,70,3840,62,3960,56.8C4080,51,4200,48,4320,55C4440,62,4560,81,4680,89.8C4800,99,4920,99,5040,89.8C5160,81,5280,62,5400,60.5C5520,59,5640,73,5760,66C5880,59,6000,29,6120,22C6240,15,6360,29,6480,29.3C6600,29,6720,15,6840,9.2C6960,4,7080,7,7200,16.5C7320,26,7440,40,7560,55C7680,70,7800,84,7920,75.2C8040,66,8160,33,8280,20.2C8400,7,8520,15,8580,18.3L8640,22L8640,110L8580,110C8520,110,8400,110,8280,110C8160,110,8040,110,7920,110C7800,110,7680,110,7560,110C7440,110,7320,110,7200,110C7080,110,6960,110,6840,110C6720,110,6600,110,6480,110C6360,110,6240,110,6120,110C6000,110,5880,110,5760,110C5640,110,5520,110,5400,110C5280,110,5160,110,5040,110C4920,110,4800,110,4680,110C4560,110,4440,110,4320,110C4200,110,4080,110,3960,110C3840,110,3720,110,3600,110C3480,110,3360,110,3240,110C3120,110,3000,110,2880,110C2760,110,2640,110,2520,110C2400,110,2280,110,2160,110C2040,110,1920,110,1800,110C1680,110,1560,110,1440,110C1320,110,1200,110,1080,110C960,110,840,110,720,110C600,110,480,110,360,110C240,110,120,110,60,110L0,110Z"/></svg>