<?xml version="1.0" standalone="no"?>
<svg xmlns:xlink="http://www.w3.org/1999/xlink" id="wave" style="transform:rotate(0deg); transition: 0.3s" viewBox="0 0 1440 110" version="1.1" xmlns="http://www.w3.org/2000/svg"><defs><linearGradient id="sw-gradient-0" x1="0" x2="0" y1="1" y2="0"><stop stop-color="rgba(29, 78, 216, 1)" offset="0%"/><stop stop-color="rgba(29, 78, 216, 1)" offset="100%"/></linearGradient></defs><path style="transform:translate(0, 0px); opacity:1" fill="url(#sw-gradient-0)" d="M0,66L120,71.5C240,77,480,88,720,78.8C960,70,1200,40,1440,23.8C1680,7,1920,4,2160,18.3C2400,33,2640,66,2880,71.5C3120,77,3360,55,3600,38.5C3840,22,4080,11,4320,22C4560,33,4800,66,5040,75.2C5280,84,5520,70,5760,62.3C6000,55,6240,55,6480,58.7C6720,62,6960,70,7200,69.7C7440,70,7680,62,7920,56.8C8160,51,8400,48,8640,55C8880,62,9120,81,9360,89.8C9600,99,9840,99,10080,89.8C10320,81,10560,62,10800,60.5C11040,59,11280,73,11520,66C11760,59,12000,29,12240,22C12480,15,12720,29,12960,29.3C13200,29,13440,15,13680,9.2C13920,4,14160,7,14400,16.5C14640,26,14880,40,15120,55C15360,70,15600,84,15840,75.2C16080,66,16320,33,16560,20.2C16800,7,17040,15,17160,18.3L17280,22L17280,110L17160,110C17040,110,16800,110,16560,110C16320,110,16080,110,15840,110C15600,110,15360,110,15120,110C14880,110,14640,110,14400,110C14160,110,13920,110,13680,110C13440,110,13200,110,12960,110C12720,110,12480,110,12240,110C12000,110,11760,110,11520,110C11280,110,11040,110,10800,110C10560,110,10320,110,10080,110C9840,110,9600,110,9360,110C9120,110,8880,110,8640,110C8400,110,8160,110,7920,110C7680,110,7440,110,7200,110C6960,110,6720,110,6480,110C6240,110,6000,110,5760,110C5520,110,5280,110,5040,110C4800,110,4560,110,4320,110C4080,110,3840,110,3600,110C3360,110,3120,110,2880,110C2640,110,2400,110,2160,110C1920,110,1680,110,1440,110C1200,110,960,110,720,110C480,110,240,110,120,110L0,110Z"/></svg>