<?xml version="1.0" standalone="no"?>
<svg xmlns:xlink="http://www.w3.org/1999/xlink" id="wave" style="transform:rotate(0deg); transition: 0.3s" viewBox="0 0 1440 110" version="1.1" xmlns="http://www.w3.org/2000/svg"><defs><linearGradient id="sw-gradient-0" x1="0" x2="0" y1="1" y2="0"><stop stop-color="rgba(29, 78, 216, 1)" offset="0%"/><stop stop-color="rgba(29, 78, 216, 1)" offset="100%"/></linearGradient></defs><path style="transform:translate(0, 0px); opacity:1" fill="url(#sw-gradient-0)" d="M0,66L40,71.5C80,77,160,88,240,78.8C320,70,400,40,480,23.8C560,7,640,4,720,18.3C800,33,880,66,960,71.5C1040,77,1120,55,1200,38.5C1280,22,1360,11,1440,22C1520,33,1600,66,1680,75.2C1760,84,1840,70,1920,62.3C2000,55,2080,55,2160,58.7C2240,62,2320,70,2400,69.7C2480,70,2560,62,2640,56.8C2720,51,2800,48,2880,55C2960,62,3040,81,3120,89.8C3200,99,3280,99,3360,89.8C3440,81,3520,62,3600,60.5C3680,59,3760,73,3840,66C3920,59,4000,29,4080,22C4160,15,4240,29,4320,29.3C4400,29,4480,15,4560,9.2C4640,4,4720,7,4800,16.5C4880,26,4960,40,5040,55C5120,70,5200,84,5280,75.2C5360,66,5440,33,5520,20.2C5600,7,5680,15,5720,18.3L5760,22L5760,110L5720,110C5680,110,5600,110,5520,110C5440,110,5360,110,5280,110C5200,110,5120,110,5040,110C4960,110,4880,110,4800,110C4720,110,4640,110,4560,110C4480,110,4400,110,4320,110C4240,110,4160,110,4080,110C4000,110,3920,110,3840,110C3760,110,3680,110,3600,110C3520,110,3440,110,3360,110C3280,110,3200,110,3120,110C3040,110,2960,110,2880,110C2800,110,2720,110,2640,110C2560,110,2480,110,2400,110C2320,110,2240,110,2160,110C2080,110,2000,110,1920,110C1840,110,1760,110,1680,110C1600,110,1520,110,1440,110C1360,110,1280,110,1200,110C1120,110,1040,110,960,110C880,110,800,110,720,110C640,110,560,110,480,110C400,110,320,110,240,110C160,110,80,110,40,110L0,110Z"/></svg>